<svg width="22" height="22" viewBox="0 0 22 22" fill="none" xmlns="http://www.w3.org/2000/svg">
<path fill-rule="evenodd" clip-rule="evenodd" d="M13.7589 4.45297C13.0892 5.25692 12.05 5.90008 10.9877 5.8082C10.8491 4.70564 11.3803 3.55714 11.9807 2.84508C12.6504 2.01816 13.782 1.42094 14.7289 1.375C14.8444 2.5235 14.4056 3.62605 13.7589 4.45297ZM14.7058 6.0379C13.782 5.99196 12.9276 6.33651 12.2347 6.61214C11.7959 6.7959 11.4264 6.93372 11.1262 6.93372C10.8029 6.93372 10.4103 6.77293 9.97152 6.58917C9.39417 6.35948 8.74754 6.08384 8.05472 6.10681C6.48432 6.10681 5.0294 7.04857 4.22111 8.51865C2.58143 11.4588 3.78232 15.8001 5.37581 18.189C6.161 19.3834 7.08477 20.6697 8.30875 20.6238C8.83991 20.6238 9.23251 20.44 9.6482 20.2563C10.1101 20.0496 10.5951 19.8428 11.3572 19.8428C12.1193 19.8428 12.535 20.0496 12.9968 20.2563C13.4125 20.44 13.8282 20.6238 14.4287 20.6238C15.6988 20.6238 16.5071 19.4294 17.2923 18.2579C18.1237 16.9946 18.4932 15.7542 18.5625 15.5474C18.5625 15.5474 18.5625 15.5245 18.5394 15.5015C18.2623 15.3637 16.1145 14.353 16.0914 11.6196C16.0914 9.3226 17.8004 8.15113 18.0775 7.96737H18.1006C16.9921 6.29057 15.2831 6.10681 14.7058 6.06087V6.0379Z" fill="white"/>
</svg>
