<svg width="20" height="20" viewBox="0 0 20 20" fill="none" xmlns="http://www.w3.org/2000/svg">
<path d="M17.9642 10.1834C17.9642 9.62234 17.919 9.06125 17.8287 8.51161H10.165V11.6835H14.5556C14.375 12.7026 13.7881 13.6187 12.9303 14.1912V16.2524H15.5488C17.0838 14.821 17.9642 12.7026 17.9642 10.1834Z" fill="#4285F4"/>
<path d="M10.1654 18.2449C12.355 18.2449 14.2061 17.512 15.5492 16.2524L12.9307 14.1913C12.197 14.6951 11.2602 14.9814 10.1654 14.9814C8.04349 14.9814 6.2489 13.5271 5.60555 11.5805H2.90802V13.7103C4.285 16.4929 7.09541 18.2449 10.1654 18.2449Z" fill="#34A853"/>
<path d="M5.6058 11.5805C5.26715 10.5614 5.26715 9.45064 5.6058 8.42006V6.30165H2.90784C1.74512 8.62617 1.74512 11.3744 2.90784 13.6989L5.6058 11.5805Z" fill="#FBBC04"/>
<path d="M10.1654 5.01912C11.3279 4.99622 12.4453 5.4428 13.2806 6.25581L15.6056 3.89694C14.1271 2.49993 12.1857 1.73272 10.1654 1.75563C7.09541 1.75563 4.285 3.51906 2.90802 6.30162L5.60556 8.43147C6.2489 6.47338 8.04349 5.01912 10.1654 5.01912Z" fill="#EA4335"/>
</svg>
